<svg width="104" height="20" viewBox="0 0 104 20" fill="none" xmlns="http://www.w3.org/2000/svg">
<path d="M91.3447 18.98L93.3727 9.35997C93.8667 7.01997 93.7107 5.97997 93.7107 5.97997H97.0907C97.0907 5.97997 97.1167 7.01997 97.0127 7.53997H97.1427C97.1427 7.53997 98.8587 5.58997 101.719 5.58997C102.759 5.58997 103.331 5.97997 103.331 5.97997L102.239 8.05997C102.239 8.05997 101.511 7.79997 100.471 7.79997C98.6507 7.79997 96.7527 9.35997 96.7527 9.35997L94.7247 18.98H91.3447Z" fill="#111111"/>
<path d="M80.3217 19.37C77.3577 19.37 75.8237 17.862 75.8237 15.912C75.8237 15.652 75.8497 15.366 75.9017 15.08C76.4737 12.48 78.8397 10.53 82.2197 10.53C84.5597 10.53 86.1457 11.57 86.1457 11.57L86.2757 10.92C86.3537 10.53 86.4057 10.14 86.4057 9.80197C86.4057 8.16397 85.3917 7.27997 83.6757 7.27997C81.3357 7.27997 79.5157 9.09997 79.5157 9.09997L78.6837 8.18997C78.6837 8.18997 80.9197 5.58997 84.5597 5.58997C87.9397 5.58997 89.7857 7.35797 89.7857 9.77597C89.7857 10.14 89.7337 10.53 89.6557 10.92L88.6677 15.6C88.1737 17.94 88.3557 18.98 88.3557 18.98H84.9757C84.9757 18.98 84.9237 17.94 85.0277 17.42H84.8977C84.8977 17.42 83.1817 19.37 80.3217 19.37ZM81.4657 17.68C83.5457 17.68 85.2877 15.6 85.2877 15.6L85.8077 13.13C85.8077 13.13 84.7157 12.22 82.6357 12.22C81.2057 12.22 79.7757 13.39 79.4117 15.08C79.1257 16.51 80.0357 17.68 81.4657 17.68Z" fill="#111111"/>
<path d="M65.1127 19.37C62.1487 19.37 60.6147 17.862 60.6147 15.912C60.6147 15.652 60.6407 15.366 60.6927 15.08C61.2647 12.48 63.6307 10.53 67.0107 10.53C69.3507 10.53 70.9367 11.57 70.9367 11.57L71.0667 10.92C71.1447 10.53 71.1967 10.14 71.1967 9.80197C71.1967 8.16397 70.1827 7.27997 68.4667 7.27997C66.1267 7.27997 64.3067 9.09997 64.3067 9.09997L63.4747 8.18997C63.4747 8.18997 65.7107 5.58997 69.3507 5.58997C72.7307 5.58997 74.5767 7.35797 74.5767 9.77597C74.5767 10.14 74.5247 10.53 74.4467 10.92L73.4587 15.6C72.9647 17.94 73.1467 18.98 73.1467 18.98H69.7667C69.7667 18.98 69.7147 17.94 69.8187 17.42H69.6887C69.6887 17.42 67.9727 19.37 65.1127 19.37ZM66.2567 17.68C68.3367 17.68 70.0787 15.6 70.0787 15.6L70.5987 13.13C70.5987 13.13 69.5067 12.22 67.4267 12.22C65.9967 12.22 64.5667 13.39 64.2027 15.08C63.9167 16.51 64.8267 17.68 66.2567 17.68Z" fill="#111111"/>
<path d="M51.4559 19.37C48.5959 19.37 47.7119 17.42 47.7119 17.42H47.5819C47.4779 17.94 47.0099 18.98 47.0099 18.98H43.6299C43.6299 18.98 44.2279 17.94 44.7219 15.6L47.9979 0.26001H51.3779L49.8439 7.41001H49.9739C49.9739 7.41001 51.7939 5.59001 54.3939 5.59001C57.6439 5.59001 59.8539 7.82601 59.8539 10.946C59.8539 11.44 59.8019 11.96 59.6979 12.48C58.8659 16.38 55.2259 19.37 51.4559 19.37ZM51.0399 17.68C53.2499 17.68 55.4599 15.86 56.1879 12.48C56.3179 11.882 56.3699 11.362 56.3699 10.868C56.3699 8.52801 55.0699 7.28001 53.2499 7.28001C51.4299 7.28001 49.4279 9.36001 49.4279 9.36001L48.1019 15.6C48.1019 15.6 48.9599 17.68 51.0399 17.68Z" fill="#111111"/>
<path d="M27.5127 18.98L29.5407 9.35997C30.0347 7.01997 29.8787 5.97997 29.8787 5.97997H33.2587C33.2587 5.97997 33.2847 7.01997 33.1807 7.53997H33.3107C33.3107 7.53997 35.0267 5.58997 37.8867 5.58997C40.8247 5.58997 42.4367 7.14997 42.4367 9.35997C42.4367 9.69797 42.4107 10.036 42.3327 10.4L40.5127 18.98H37.1327L38.9527 10.4C39.0307 10.088 39.0567 9.77597 39.0567 9.51597C39.0567 8.08597 38.1727 7.27997 36.7427 7.27997C34.6627 7.27997 32.9207 9.35997 32.9207 9.35997L30.8927 18.98H27.5127Z" fill="#111111"/>
<path d="M20.6348 18.98L23.3908 5.98H26.7708L24.0148 18.98H20.6348ZM25.5228 3.9C24.4828 3.9 23.7548 2.99 23.9888 1.95C24.1968 0.909999 25.3148 0 26.3548 0C27.3948 0 28.0968 0.909999 27.8888 1.95C27.6548 2.99 26.5628 3.9 25.5228 3.9Z" fill="#111111"/>
<path d="M14.625 18.98H0L1.047 14.325H10.732L13.5 3.97998H18L14.625 18.98ZM8.589 11.44H1.7L3.375 3.97998H10.588L8.588 11.439L8.589 11.44Z" fill="#111111"/>
</svg>
